<svg xmlns="http://www.w3.org/2000/svg" width="249" height="64" viewBox="0 0 249 64">
<path fill-rule="evenodd" d="M110.332 38.479l-3.391 9.431c0 .377-.377.377-.377.377h-5.275c-.377 0-.377 0-.377-.377 3.015-7.922 7.536-21.503 10.928-30.557 0-.377.376-1.131.376-3.018 0-.377 0-.377.377-.377h7.16c.377-.377.377 0 .377 0 3.768 10.94 8.29 22.635 12.058 33.575 0 .377 0 .377-.377.377h-6.03c-.376 0-.376 0-.376-.377l-3.391-9.431h-11.682v.377zm10.551-5.281c-1.13-3.396-3.768-10.563-4.522-14.336-.753 3.395-3.014 9.431-4.521 14.336h9.043zm14.696 2.263c0-7.545 5.652-13.58 14.696-13.58 1.13 0 2.26 0 3.014.376V10.94c0-.377 0-.377.377-.377h5.652c.377 0 .377 0 .377.377V45.27c0 .378 0 .378-.377.378-3.391 1.509-7.16 2.64-10.55 2.64-7.914.378-13.19-3.772-13.19-12.826zm17.333-7.922c-.753-.377-1.884-.377-3.014-.377-4.899 0-7.913 3.018-7.913 8.3 0 6.035 3.391 8.298 7.536 8.298 1.13 0 2.638-.377 3.768-.377V27.54h-.377zm38.435 7.545c0 8.3-5.275 13.58-12.811 13.58-9.044 0-12.812-6.79-12.812-13.203 0-7.922 5.275-13.204 13.189-13.204 7.913-.377 12.434 5.66 12.434 12.827zm-19.217 0c0 5.281 2.26 8.676 6.406 8.676 3.391 0 6.029-2.263 6.029-8.676 0-4.904-1.884-8.677-6.406-8.677-3.391.377-6.03 3.395-6.03 8.677zm30.522-24.144c.377 0 .377 0 .377.377V23.39c1.884-.754 3.768-1.132 5.652-1.132 7.16 0 11.681 5.282 11.681 12.072 0 9.054-7.16 14.713-15.45 14.713-2.637 0-5.275-.377-7.912-1.132-.377 0-.377-.377-.377-.377V11.317c0-.377 0-.377.377-.377h5.652zm4.898 16.222c-1.507 0-3.014.377-4.145.754v15.467c.754.377 1.885.377 3.015.377 3.768 0 8.29-3.017 8.29-9.053-.377-4.905-3.391-7.545-7.16-7.545zm24.87 9.43c0 4.15 2.638 6.791 7.913 6.791 1.884 0 4.145-.377 6.406-1.132 0 0 .377 0 .377.378v4.15c0 .377 0 .377-.377.754-1.884 1.132-4.522 1.509-7.913 1.509-9.42 0-13.188-6.413-13.188-13.204 0-7.545 4.521-13.58 12.434-13.58 7.913 0 10.928 6.035 10.928 10.94 0 2.263-.377 3.395-.377 3.395h-16.202zm8.29-4.149c1.884 0 2.261-.377 2.261-.377v-.755c0-1.509-1.13-4.904-5.275-4.904-3.392 0-5.276 2.64-5.653 6.036h8.667zM44.84 0h26.378v63L44.84 0zM0 0h26.377L0 63V0zm24.116 50.174l11.305-27.162L52.377 63H41.45l-5.276-12.826H24.116z"/>
</svg>
