<svg xmlns="http://www.w3.org/2000/svg" width="84" height="12" viewBox="0 0 84 12">
<path fill-rule="evenodd" d="M54.414.35c1.745.226 3.562.455 5.1 1.376.9.52 1.594 1.465 1.627 2.527-2.88.06-5.759.03-8.638.02-.86-1.003-2.234-1.317-3.5-1.374-1.695-.057-3.458.07-5.01.809-1.314.621-2.44 1.772-2.787 3.21-.169.655.255 1.332.83 1.628 1.113.568 2.388.634 3.613.68 1.603.064 3.273-.236 4.634-1.124.135-.077.252-.222.424-.2 2.911-.01 5.824-.006 8.735.007-1.003 1.12-2.336 1.89-3.724 2.435-1.74.683-3.59 1.042-5.436 1.288-2.05.244-4.114.394-6.178.364-2.793-.015-5.617-.196-8.311-.977-1.243-.388-2.496-.98-3.306-2.036-.675-.837-.77-2.054-.327-3.02.574-1.27 1.696-2.188 2.874-2.88 2.057-1.182 4.337-1.936 6.656-2.412 4.183-.839 8.5-.826 12.724-.322zm-40.28.068c-.556 1.256-1.121 2.509-1.68 3.765 2.946.005 5.892-.01 8.837.007.577-1.251 1.114-2.522 1.69-3.774 3.111-.003 6.221-.011 9.332.001a5935.28 5935.28 0 0 0-5.05 11.186c-2.605.057-5.212.022-7.817.03-.493.005-.988.016-1.477-.052.69-1.465 1.34-2.947 2.002-4.422l-8.864-.001c-.64 1.48-1.302 2.95-1.922 4.438-3.062.065-6.123.04-9.185.023C1.66 7.87 3.384 4.147 5.054.402c3.026-.05 6.053.028 9.08.016zM74.89.383c-1.267 2.84-2.542 5.674-3.822 8.509 4.31.002 8.622.012 12.933.012-.41.908-.819 1.816-1.23 2.723-7.433.006-14.866.008-22.298 0 1.657-3.758 3.351-7.498 5.033-11.244h9.384z"/>
</svg>
