<svg xmlns="http://www.w3.org/2000/svg" width="100" height="28" viewBox="0 0 100 28">
<path fill-rule="evenodd" d="M73.828 21.219c-3.418 0-5.542-1.953-5.542-5.099 0-3.268 1.96-5.3 5.115-5.3h.266c.395 0 .94.011 1.684.105V6.98h2.232v13.883s-2.12.355-3.755.355zm-.02-8.667c-2.16 0-3.21 1.15-3.21 3.514 0 2.121 1.266 3.439 3.303 3.439.391 0 .84-.024 1.45-.077v-6.735a9.95 9.95 0 0 0-1.543-.14zm-30.519 8.35l-6.023-10.367-.002 10.367h-2.098V7.78h2.937l6.023 10.275-.002-10.275h2.126v13.123h-2.96zm19.183.201c-1.014 0-2.072-.111-3.331-.35l-.134-.026v-1.834l.2.044c1.108.232 2.067.433 3.024.433.776 0 2.58-.121 2.58-1.245 0-.943-1.247-1.18-2.249-1.368l-.062-.012c-.186-.037-.363-.071-.513-.108-1.469-.377-3.035-.94-3.035-2.882 0-1.893 1.52-2.978 4.169-2.978 1.27 0 2.194.135 2.935.244l.363.053v1.777l-.194-.032c-.839-.153-1.822-.31-2.77-.31-1.05 0-2.301.194-2.301 1.118 0 .765 1.022.985 2.206 1.238 1.654.355 3.707.797 3.707 3.023 0 2.043-1.675 3.215-4.595 3.215zm21.37 0c-2.31 0-4.447-.4-4.447-3.306 0-3.162 3.306-3.162 5.28-3.162.198 0 1.127.041 1.413.054-.003-1.774-.027-2.197-2.636-2.197-1.034 0-2.183.202-3.197.381l-.193.034v-1.752l.132-.027a17.346 17.346 0 0 1 3.462-.351c2.529 0 4.671.251 4.671 3.344v6.746l-.154.016c-1.751.194-3.142.22-4.33.22zm.778-4.904c-1.904 0-3.084.276-3.084 1.652 0 1.592 1.506 1.725 2.918 1.725.528 0 1.477-.066 1.767-.088v-3.235c-.41-.016-1.472-.054-1.601-.054zm-32.063 4.904c-2.31 0-4.448-.4-4.448-3.306 0-3.162 3.306-3.162 5.281-3.162.197 0 1.126.041 1.412.054-.003-1.774-.027-2.197-2.635-2.197-1.035 0-2.183.202-3.198.381l-.193.034v-1.752l.132-.027a17.35 17.35 0 0 1 3.462-.351c2.529 0 4.671.251 4.671 3.344v6.746l-.154.016c-1.75.194-3.142.22-4.33.22zm.777-4.904c-1.904 0-3.084.276-3.084 1.652 0 1.592 1.506 1.725 2.918 1.725.529 0 1.477-.066 1.767-.088v-3.235c-.41-.016-1.472-.054-1.601-.054zm43.872 9.16v-4.303c-.871.12-1.334.12-1.707.12-.883 0-1.864-.189-2.624-.507-1.699-.695-2.713-2.466-2.713-4.738 0-1.136.28-3.208 2.155-4.325.938-.555 2.05-.792 3.719-.792.599 0 1.406.046 2.186.09l1.266.065v13.394l-2.282.997zm-1.337-12.812c-2.264 0-3.413 1.138-3.413 3.384 0 2.889 1.715 3.495 3.154 3.495.35 0 .745 0 1.616-.108v-6.71a19.342 19.342 0 0 0-1.357-.061zM25.204 0h7.94l-7.376 19.983c-.196.536-.718.92-1.33.92h-7.795v-.012a1.409 1.409 0 0 0 1.186-.908L25.204 0zm-9.196 20.597c-.55 0-1.02-.328-1.227-.795l-1.589-4.3 2.705-7.328c.045-.134.15-.29.176-.325.242-.336.64-.556 1.09-.556.555 0 1.032.335 1.234.81l1.582 4.282-2.705 7.332a1.362 1.362 0 0 1-1.266.88zm.578-13.61v.004a1.41 1.41 0 0 0-1.271.915L7.94 27.888H0L7.375 7.906a1.414 1.414 0 0 1 1.33-.919h7.881z"/>
</svg>
