<svg xmlns="http://www.w3.org/2000/svg" width="125" height="29" viewBox="0 0 125 29"><path fill-rule="evenodd" d="M28.034.038c.125 0 .25.02.395.02.145 0 .311.042.643.104-4.608.228-8.946.807-13.076 2.525-1.785.725-3.404 1.698-4.836 3.023-1.473 1.366-1.868 3.042-1.37 4.926.623 2.484 2.2 4.347 4.193 5.858 1.785 1.346 2.885 3.043 2.947 5.32.062 2.526-.996 4.513-3.134 5.817-2.18 1.345-4.462 1.366-6.683.145C2.547 25.23.139 21.317.18 16.06c.041-3.664 1.556-6.707 4.213-9.212 3.59-3.395 7.97-5.134 12.723-6.065 3.611-.704 7.244-.87 10.917-.745zm-7.45 5.9c2.843 2.11 4.607 4.884 5.146 8.383a12.773 12.773 0 0 1-6.392 13.206c-.25.145-.478.332-.81.207 2.844-2.235 3.778-5.195 3.321-8.673-.166-1.2-.789-2.215-1.515-3.146-.789-1.015-1.681-1.946-2.553-2.898a8.34 8.34 0 0 1-.996-1.263c-.81-1.346-.747-2.608.207-3.83.748-.972 1.765-1.614 2.844-2.173.332-.166.519.02.747.186zM38.286 7.24c1.62.042 3.155.394 4.484 1.387.373.27.477.456.103.828-.664.642-1.266 1.346-1.888 2.029-.229.248-.332.31-.644.062-1.162-.89-2.449-1.097-3.819-.538-.602.248-1.017.641-1.038 1.325-.041.683.291 1.117.872 1.428.996.538 2.096.766 3.155 1.097.83.27 1.598.642 2.283 1.16 2.096 1.593 1.785 5.32.125 6.996-1.453 1.51-3.3 1.904-4.816 1.925-2.407 0-4.13-.538-5.645-1.739-.394-.31-.394-.497-.042-.849.665-.662 1.287-1.387 1.91-2.09.27-.29.394-.352.726-.021 1.204 1.18 2.636 1.552 4.255.973.623-.228 1.1-.6 1.163-1.325.062-.745-.27-1.221-.893-1.573-.955-.518-1.992-.807-3.01-1.118-.933-.29-1.805-.683-2.573-1.283-2.117-1.656-1.681-5.155-.02-6.79 1.473-1.449 3.32-1.925 5.312-1.884zm12.827 5.444c2.74.249 4.068 1.553 4.317 4.285.229 2.402.042 4.803.104 7.204 0 .331-.166.393-.436.373-.768 0-1.556-.042-2.324 0-.478.02-.602-.145-.56-.58.04-.248.02-.476.02-.828-1.577 1.635-3.777 2.111-5.708 1.283-1.39-.58-2.137-1.635-2.179-3.125-.041-1.553.685-2.67 2.096-3.312 1.37-.642 2.865-.746 4.338-.808.25-.02.52 0 .768-.02.727 0 .83-.145.498-.828-.373-.766-1.017-1.139-1.847-1.2-1.1-.104-2.034.289-2.823 1.034-.29.29-.456.27-.705-.02-.374-.435-.768-.87-1.225-1.243-.353-.31-.27-.476.062-.724 1.66-1.263 3.57-1.656 5.604-1.49zm18.369 0c2.843.332 4.628 2.443 4.753 5.63.058 1.427.062 1.525-1.177 1.532h-2.974v-.02c-1.204 0-2.408.02-3.612 0-.456 0-.498.124-.353.517.705 1.827 3.049 2.272 4.534.881l.136-.135c.353-.373.54-.394.914-.083.519.435 1.058.828 1.598 1.18.415.269.332.455.041.724-1.411 1.408-3.134 1.946-5.085 1.884-3.113-.104-5.707-2.505-5.894-5.486-.25-4.119 2.926-7.1 7.119-6.624zm48.132-6.334c.29.104.373.249.311.518l-.042.248c-.166.973-.166.973-1.162.828-1.224-.165-2.034.456-2.18 1.698-.124 1.097-.082 2.194-.103 3.27 0 .331.125.393.415.393 1.39-.02 2.802-.02 4.193 0 .332 0 .456-.103.436-.434-.021-.725.02-1.47-.021-2.194-.02-.394.062-.56.519-.56h.286c1.104.005 1.104.083 1.104 1.367 0 .58-.186 1.345.104 1.677.353.393 1.142.082 1.723.124.207.02.436.02.643 0 .623-.104.872.083.81.786-.063.828-.021.828-.872.828-.623 0-1.245.021-1.868 0-.415-.02-.56.104-.56.539.02 1.883 0 3.767.02 5.671.021 1.532.665 2.091 2.2 1.863.333-.02.665-.145 1.08-.248 0 .166.02.29.02.414.104 1.428.104 1.47-1.37 1.615a8.037 8.037 0 0 1-1.41.02c-1.35-.124-2.139-.87-2.305-2.256-.249-2.153-.062-4.326-.103-6.5-.021-1.056 0-1.056-1.038-1.056-1.162 0-2.325.021-3.487-.02-.436 0-.54.124-.54.538.021 2.794 0 5.568.021 8.363 0 .517-.124.704-.664.683-1.245-.042-1.245 0-1.245-1.263 0-2.546-.021-5.113.02-7.659 0-.538-.166-.724-.685-.662-.29.041-.602.02-.892 0-.911-.02-.84.111-.831-.687v-.12c0-.765 0-.806.76-.808h.133c1.461 0 1.513 0 1.515-1.336v-.154c0-.973 0-1.925.229-2.878.498-2.132 2.78-3.353 4.836-2.608zm-33.5 7.39c.374.29.499.497.063.87-.52.434-.997.952-1.453 1.449-.25.269-.395.248-.664 0-.706-.621-1.536-.85-2.45-.518-.352.124-.56.352-.58.766 0 .393.248.559.56.683.747.29 1.536.373 2.304.6.31.083.622.166.913.29 1.515.6 2.22 1.553 2.22 3.043.021 1.553-.747 2.608-2.116 3.25-1.017.476-2.117.621-3.238.621-1.495-.041-2.948-.27-4.193-1.221-.332-.27-.373-.435-.062-.746a23.032 23.032 0 0 0 1.515-1.676c.25-.31.394-.352.685-.042.872.911 1.951 1.077 3.155.787.332-.083.622-.248.643-.621.02-.393-.228-.642-.56-.766-.727-.31-1.495-.393-2.242-.6-.913-.228-1.847-.497-2.49-1.242-1.225-1.366-.914-3.768.643-4.989 1.806-1.408 5.562-1.366 7.347.062zm19.24-.662c3.467-.02 5.999 2.401 5.999 5.775 0 3.436-2.45 5.92-5.853 5.92-3.59.021-6.081-2.36-6.102-5.796 0-3.436 2.47-5.879 5.957-5.9zm-45.62-6.562a22.95 22.95 0 0 0 2.387 0c.498-.02.644.124.644.62-.021 4.472-.021 8.923-.021 13.394l-.01 2.318c0 .387.003.773.01 1.16 0 .393-.083.558-.54.538-.81-.042-1.64-.042-2.449 0-.498.02-.664-.125-.643-.642.041-2.815.041-5.63.041-8.425 0-2.795.02-5.589-.02-8.363 0-.476.124-.642.601-.6zm29.909 1.138c1.473.021 1.473 0 1.473 1.47 0 4.264.021 8.528-.02 12.793 0 .62.186.724.747.724 2.138-.041 4.255 0 6.393-.02.498 0 .622.144.601.62-.02 1.284 0 1.284-1.266 1.284-2.594 0-5.21-.02-7.804.02-.54 0-.726-.103-.726-.683.041-2.587.02-5.175.02-7.741 0-2.609.021-5.237 0-7.846 0-.455.063-.641.582-.62zm15.753 7.142c-2.262 0-3.943 1.739-3.943 4.12-.021 2.4 1.619 4.118 3.922 4.118 2.304 0 3.923-1.697 3.923-4.098s-1.619-4.14-3.902-4.14zm-52.283 4.657c-.062 0-.103.021-.145.021v.02c-.228 0-.477-.02-.706 0-.705.042-1.411.187-1.971.642-.582.456-.623 1.284-.104 1.74 1.058.93 3.404.351 3.923-.974.435-1.117.145-1.531-.997-1.449zm17.31-4.243c-1.12.041-2.158.786-2.387 1.739-.062.31-.02.434.333.414.664-.021 1.328 0 1.992 0 .602 0 1.204-.021 1.806 0 .498.041.519-.166.415-.56-.27-.951-1.162-1.635-2.159-1.593z"/></svg>