<svg xmlns="http://www.w3.org/2000/svg" width="67" height="22" viewBox="0 0 67 22">
<path fill-rule="evenodd" d="M66.452 21.145h-5.003c-.183-.88-.379-1.741-.535-2.609-.063-.36-.179-.5-.58-.49-2.007.025-4.013.019-6.02 0-.303 0-.423.098-.517.375a62.62 62.62 0 0 1-.887 2.462c-.042.111-.18.264-.276.264-1.809.016-3.616.012-5.476.012.338-.817.66-1.596.98-2.376L55.14 2.086C55.644.875 56.406.368 57.704.368h4.391c.146.68.292 1.35.432 2.019 1.15 5.501 2.299 11.003 3.443 16.505.147.706.321 1.404.483 2.106l-.001.147zm-6.548-7.381l-1.585-7.61-.064-.012-2.76 7.62 4.409.002zM44.659 0c.66.123 1.325.223 1.979.374.596.138 1.18.33 1.814.51l-.936 4.385c-.837-.246-1.636-.53-2.453-.711-1.124-.245-2.276-.342-3.4-.03-.47.135-.906.367-1.28.682-.613.529-.626 1.29-.036 1.84.421.375.88.704 1.37.982 1.095.66 2.244 1.228 3.31 1.936 1.254.828 2.167 1.963 2.36 3.508.338 2.725-.668 4.871-2.954 6.39-1.438.954-3.066 1.38-4.761 1.538a16.99 16.99 0 0 1-6.95-.789c-.153-.049-.3-.111-.448-.173a1.036 1.036 0 0 1-.15-.092l.968-4.54c.386.167.748.337 1.118.49 1.767.712 3.593 1.038 5.484.684.504-.101.984-.301 1.411-.59.905-.607.992-1.748.168-2.462-.542-.47-1.193-.815-1.81-1.19-.972-.579-1.997-1.083-2.91-1.739-1.17-.843-2.016-1.963-2.176-3.46-.245-2.239.588-4.05 2.305-5.467C38.174.85 39.947.303 41.832.074c.105-.019.21-.044.312-.074h2.515zM25.205.387c-.281.677-.547 1.323-.817 1.963-2.573 6.15-5.144 12.298-7.712 18.447-.122.293-.27.368-.567.368-1.626-.013-3.251-.018-4.876 0-.344 0-.457-.115-.536-.425C9.32 15.37 7.914 10.002 6.552 4.625c-.246-.981-.75-1.66-1.688-2.074a26.88 26.88 0 0 0-4.66-1.505L0 .994C.007.368.007.368.6.368h8.532c1.348 0 2.322.784 2.575 2.12.724 3.786 1.43 7.575 2.15 11.355.03.166.065.33.113.564.074-.14.123-.216.158-.301C15.892 9.634 17.655 5.16 19.415.688c.095-.245.213-.327.477-.325 1.65.014 3.3 0 4.949.008.106-.003.213.01.364.016zm-2.152 20.77L27.492.394h5.388l-.665 3.12a24563.53 24563.53 0 0 0-3.653 17.14c-.085.398-.224.524-.636.516-1.472-.029-2.954-.011-4.432-.011h-.441z"/>
</svg>
