<svg xmlns="http://www.w3.org/2000/svg" width="174" height="22" viewBox="0 0 174 22">
<path fill-rule="evenodd" d="M6.622 10.114c2.743 2.93 3.69 7.837 2.128 11.064a.6.6 0 0 1-.557.344H.947a.622.622 0 0 1-.557-.9l5.205-10.396a.604.604 0 0 1 1.027-.112zM10.439.658a.588.588 0 0 1 1.058-.004c.245.487 9.992 19.968 9.992 19.968a.621.621 0 0 1-.556.9h-7.246a.622.622 0 0 1-.556-.344l-3.494-6.981A13.704 13.704 0 0 1 10.44.657zm84.984 8.336l13.468 7.379c0 3.236-1.94 5.414-6.827 5.414-3.454 0-5.313-.77-6.721-1.46v-4.193a14.4 14.4 0 0 0 6.774 1.831c1.964 0 2.55-.584 2.55-1.486 0-.93-.584-1.379-3.374-1.964-4.675-.902-5.87-2.946-5.87-5.52zm13.468 7.379L95.423 8.994c0-3.212 2.337-5.176 6.853-5.176a13.338 13.338 0 0 1 5.764 1.195V9.02c-1.885-.85-3.878-1.46-5.897-1.46-1.673 0-2.576.425-2.576 1.433 0 .796.61 1.354 3.134 1.911 4.57.982 6.19 2.415 6.19 5.468zm49.326-12.29h5.87l4.224 7.99 1.408 3.265V4.084h3.719v17.438h-4.676l-5.26-9.768-1.567-3.53v13.298h-3.718V4.084zm-27.718 0h4.064v17.439H130.5V4.084zm-4.69 12.29c0 3.236-1.939 5.414-6.826 5.414-3.454 0-5.313-.77-6.721-1.46v-4.193a14.4 14.4 0 0 0 6.774 1.831c1.964 0 2.55-.584 2.55-1.486 0-.93-.585-1.379-3.374-1.964-4.675-.902-5.87-2.946-5.87-5.52 0-3.213 2.337-5.177 6.853-5.177a13.338 13.338 0 0 1 5.764 1.195V9.02c-1.886-.85-3.878-1.46-5.897-1.46-1.673 0-2.576.425-2.576 1.433 0 .796.61 1.354 3.134 1.911 4.569.982 6.19 2.415 6.19 5.468zM63.85 4.083h4.09v13.67h5.58l-1.316 3.769H63.85V4.084zm-16.504 0h13.44v3.77h-4.834v13.669h-4.09V7.852h-4.516V4.084zm-5.932 0l6.084 17.439h-4.649l-.862-2.937a11.56 11.56 0 0 1-6.51 0l-.862 2.937h-4.648l6.086-17.438h5.361zm-2.68 11.357c.756.001 1.51-.106 2.236-.319L38.733 7.51l-2.236 7.61c.726.213 1.48.321 2.236.321zM86.604 4.084l6.086 17.438h-4.649l-.863-2.937a11.56 11.56 0 0 1-6.509 0l-.863 2.937H75.16l6.086-17.438h5.36zm-2.68 11.356c.757.001 1.51-.106 2.237-.319L83.925 7.51l-2.237 7.61c.727.213 1.48.321 2.237.321zm65.284-11.356l6.085 17.438h-4.648l-.863-2.937a11.56 11.56 0 0 1-6.51 0l-.862 2.937h-4.649l6.086-17.438h5.36zm-2.682 11.356c.757.001 1.51-.106 2.237-.319l-2.237-7.612-2.237 7.61c.727.213 1.48.321 2.237.321z"/>
</svg>
