<svg xmlns="http://www.w3.org/2000/svg" width="133" height="30" viewBox="0 0 133 30">
<path fill-rule="evenodd" d="M10.54 22.996a9.277 9.277 0 0 0 6.782-2.928l-2.795-5.21c1.28 1.174 2.79 2.105 4.408 2.85a9.13 9.13 0 0 0 .882-3.921c0-3.283-1.73-6.164-4.335-7.795-5.102 5.393-8.843 10.915-10.68 15.031a9.278 9.278 0 0 0 5.738 1.973zm-9.274-9.21c0 2.103.71 4.036 1.902 5.588C5.47 14.942 9.363 9.814 14.39 5.402a9.33 9.33 0 0 0-3.85-.827c-5.123 0-9.274 4.123-9.274 9.212zM20.1 18.202c7.452 2.941 16.534 2.348 16.534 3.002 0 0-13.718.36-18.312.731l-.374-.7a10.546 10.546 0 0 1-7.408 3.02c-2.333 0-4.487-.753-6.234-2.028-1.072 2.83-1.068 4.805.232 5.294 2.112.79 5.958-2.656 5.958-2.656-2.487 3.725-6.63 6.012-8.534 4.75-1.78-1.177-1.427-4.66.593-8.997A10.377 10.377 0 0 1 0 13.787c0-5.781 4.72-10.47 10.54-10.47 1.765 0 3.43.432 4.891 1.193A47.581 47.581 0 0 1 21.842 0a75.513 75.513 0 0 0-5.469 5.067c2.839 1.876 4.709 5.08 4.709 8.72 0 1.576-.35 3.073-.982 4.414zm62.89-5.377h-5.985l-1.581 2.089h5.98l-1.716 2.267H67.742l8.217-10.828h11.945l-1.722 2.264H80.2l-1.474 1.941 5.982.002-1.718 2.265zm8.296-6.472h5.962L89.032 17.18h-5.959l8.213-10.828zm19.858 0h3.946l-8.217 10.828h-4.707l-1.268-5.44-4.129 5.44h-3.942l8.215-10.828h4.658l1.28 5.49 4.164-5.49zm19.489 0c.804 0 1.46.65 1.46 1.45 0 .33-.11.63-.292.87l-1.054 1.39h-5.954l.638-.841a.393.393 0 0 0 .078-.229.378.378 0 0 0-.38-.376h-1.689c-.426 0-.804.2-1.04.515l-3.93 5.18a.356.356 0 0 0-.077.225c0 .208.169.377.382.377h1.686a1.3 1.3 0 0 0 1.041-.517l2.317-3.052h7.338l-1.73 2.282h-1.384l-1.188 1.565a5.03 5.03 0 0 1-4.016 1.99h-9.58c-.806 0-1.459-.652-1.459-1.453 0-.327.108-.629.295-.87l4.944-6.519a5.025 5.025 0 0 1 4.013-1.989l9.58.002zM64.41 9.22a.378.378 0 0 0-.302-.604h-1.69c-.424 0-.8.206-1.041.517l-3.929 5.177a.377.377 0 0 0 .303.603h1.688c.428 0 .804-.202 1.04-.516l3.931-5.177zm6.66-1.418c0 .329-.108.63-.291.872l-4.945 6.517a5.03 5.03 0 0 1-4.018 1.99h-9.576a1.455 1.455 0 0 1-1.459-1.452c0-.328.108-.628.293-.872l4.946-6.518a5.028 5.028 0 0 1 4.015-1.988h9.575c.808 0 1.46.65 1.46 1.45zM46.207 9.22a.379.379 0 0 0-.304-.604h-2.338l-1.475 1.94 2.447.003c.428 0 .803-.202 1.042-.513l.628-.826zm-3.196 4.208a.377.377 0 0 0-.302-.603H40.37l-1.583 2.088h2.446a1.3 1.3 0 0 0 1.04-.514l.738-.971zm5.533-1.398c.287.212.476.552.476.937 0 .26-.084.504-.234.696l-1.159 1.528a5.029 5.029 0 0 1-4.016 1.99H31.107l8.215-10.83h12.085c.807 0 1.46.65 1.46 1.45 0 .33-.11.631-.295.873l-1.132 1.493c-.7.925-1.722 1.6-2.896 1.863z"/>
</svg>
