<?xml version="1.0" encoding="UTF-8"?>
<svg width="18px" height="17px" viewBox="0 0 18 17" version="1.1" xmlns="http://www.w3.org/2000/svg"
     xmlns:xlink="http://www.w3.org/1999/xlink">
    <g stroke="none" stroke-width="1" fill="none" fill-rule="evenodd">
        <g transform="translate(1.000000, 1.000000)" stroke="#ffffff"
           stroke-linecap="round" stroke-linejoin="round" stroke-width="1.5">
            <path d="M10.1604911,14.4169475 L10.1692346,14.4226861 C11.7255578,15.3517905 13.7614288,15.1421605 15.065599,13.9185161 L15.6155656,13.4028692 C15.8617063,13.1722363 16,12.8593423 16,12.5330736 C16,12.2068049 15.8617063,11.8939109 15.6155656,11.663278 L13.295913,9.49001876 C13.04993,9.25923805 12.7162108,9.12957435 12.3682268,9.12957435 C12.0202428,9.12957435 11.6865236,9.25923805 11.4405406,9.49001876 C10.9283898,9.97006469 10.0981934,9.97006469 9.58604259,9.49001876 L5.87704653,6.01165623 C5.3650504,5.53146531 5.3650504,4.75307579 5.87704653,4.27288487 C6.12318722,4.04225201 6.26148088,3.72935797 6.26148088,3.40308929 C6.26148088,3.0768206 6.12318722,2.76392656 5.87704653,2.53329371 L3.55826823,0.360034443 C3.04611745,-0.120011481 2.21592098,-0.120011481 1.7037702,0.360034443 L1.1529292,0.875681398 C-0.151873899,2.09867167 -0.375090414,4.00747896 0.616077819,5.46649689 L0.621323923,5.47469478 C3.16234645,8.99961119 6.40050251,12.0351393 10.1604911,14.4169475 Z" />
        </g>
    </g>
</svg>
