<svg xmlns="http://www.w3.org/2000/svg" width="133" height="29" viewBox="0 0 133 29">
<path fill-rule="evenodd" d="M46.888 16.214L51.242 5.63h4.003v16.847H52.32V11.784c.022-.677.066-1.79.132-3.033h-.066c-.11.48-.22 1.047-.33 1.33l-5.058 12.417h-1.936L39.96 10.191c-.11-.306-.264-.786-.396-1.44h-.066c.022.261.066.61.088 1.069.022.916.022 1.658.022 2.313v10.409H36.86V5.674h4.157l4.244 10.583c.396.917.638 1.68.77 2.182h.066l.792-2.225zm11.128-5.827h2.859v12.09h-2.86v-12.09zm1.451-5.106c.506 0 .924.174 1.21.48.33.327.506.72.506 1.178 0 .459-.176.851-.506 1.157a1.762 1.762 0 0 1-1.21.458c-.484 0-.88-.153-1.21-.458a1.53 1.53 0 0 1-.505-1.157c0-.48.176-.873.506-1.178a1.72 1.72 0 0 1 1.21-.48zm11.546 4.997c.572.11.99.284 1.364.437l.022.021v2.772l-.11-.088c-.858-.61-1.804-.916-2.727-.916-1.1 0-2.002.37-2.683 1.091-.682.72-1.012 1.702-1.012 2.946 0 1.2.33 2.16.99 2.859.637.72 1.54 1.047 2.683 1.047.396 0 .857-.087 1.363-.262a4.928 4.928 0 0 0 1.386-.72l.11-.087v2.618l-.022.022c-.924.524-2.09.808-3.453.808-1.188 0-2.243-.262-3.145-.764-.946-.502-1.65-1.244-2.155-2.16-.506-.939-.77-1.964-.77-3.121 0-1.331.264-2.488.792-3.491.506-.982 1.297-1.768 2.287-2.335.99-.568 2.177-.851 3.475-.851.528 0 1.077.065 1.605.174zm9.435-.087c.484 0 .88.065 1.078.196l.066.022v2.837l-.11-.087c-.154-.11-.374-.197-.682-.284-.33-.044-.594-.11-.858-.11-.748 0-1.363.328-1.847.983-.484.633-.704 1.505-.704 2.553v6.176h-2.859v-12.09h2.859v2.117h.022c.286-.677.616-1.244 1.1-1.637a3.032 3.032 0 0 1 1.935-.676zm7.785-.066c1.892 0 3.41.546 4.443 1.659 1.077 1.113 1.605 2.64 1.605 4.56 0 1.943-.55 3.514-1.693 4.692-1.122 1.179-2.683 1.768-4.64 1.768-1.87 0-3.365-.568-4.465-1.659-1.1-1.113-1.672-2.64-1.672-4.517 0-2.007.55-3.6 1.694-4.757 1.122-1.156 2.727-1.746 4.728-1.746zm2.287 9.296c.55-.676.792-1.702.836-3.011 0-1.287-.308-2.27-.88-2.946-.571-.676-1.363-1.004-2.375-1.004-1.033 0-1.847.35-2.44 1.048-.573.698-.88 1.68-.88 2.967 0 1.244.285 2.226.88 2.903.593.72 1.429 1.047 2.462 1.047 1.034 0 1.87-.327 2.397-1.004zm10.139-4.015a8.932 8.932 0 0 1 2.573 1.506c.484.545.704 1.266.704 2.073 0 1.157-.462 2.051-1.342 2.75-.857.72-2.067 1.047-3.54 1.047-.484 0-1.034-.087-1.65-.196-.616-.153-1.122-.284-1.54-.48l-.065-.022v-2.772l.11.088a6.137 6.137 0 0 0 1.605.807c.594.196 1.1.284 1.583.284 1.254 0 1.87-.393 1.87-1.2 0-.284-.066-.502-.176-.677-.154-.153-.352-.35-.66-.524-.308-.174-.814-.392-1.473-.676-.792-.327-1.364-.677-1.76-.982a3.31 3.31 0 0 1-.88-1.135c-.197-.414-.285-.916-.285-1.484 0-1.069.417-1.986 1.297-2.662.88-.72 2.001-1.047 3.365-1.047.396 0 .88.043 1.408.13.527.11.967.24 1.297.371l.066.022v2.663l-.11-.088c-.352-.262-.792-.458-1.275-.589a5.734 5.734 0 0 0-1.474-.218c-.55 0-.924.109-1.254.327-.33.218-.461.546-.461.873 0 .393.11.698.33.917.263.24.835.523 1.737.894zm10.82-5.28c1.891 0 3.409.545 4.443 1.658 1.077 1.113 1.605 2.64 1.605 4.56 0 1.943-.55 3.514-1.693 4.692-1.122 1.179-2.683 1.768-4.64 1.768-1.87 0-3.366-.568-4.465-1.659-1.1-1.113-1.672-2.64-1.672-4.517 0-2.007.572-3.6 1.694-4.757 1.121-1.156 2.727-1.746 4.728-1.746zm2.265 9.295c.55-.676.836-1.702.836-3.011 0-1.287-.308-2.27-.88-2.946-.571-.676-1.385-1.004-2.375-1.004-1.033 0-1.847.35-2.44 1.048-.573.698-.88 1.68-.88 2.967 0 1.244.285 2.226.88 2.903.593.72 1.407 1.047 2.462 1.047 1.034 0 1.87-.327 2.397-1.004zm19.068-6.699h-2.925v5.717c0 .742.132 1.244.396 1.55.286.327.681.458 1.253.458.154 0 .352-.022.572-.087.264-.066.418-.153.594-.262l.11-.087v2.335l-.022.021a3.98 3.98 0 0 1-.902.284c-.396.066-.814.131-1.21.131-2.419 0-3.628-1.287-3.628-3.84v-6.22h-4.31v9.755h-2.882V12.7h-2.001v-2.313h2.001v-1.68c0-.851.198-1.593.572-2.248a3.8 3.8 0 0 1 1.561-1.55 5.184 5.184 0 0 1 2.288-.523c.681 0 1.21.087 1.605.218l.066.022v2.466l-.11-.065c-.462-.197-.88-.284-1.275-.284-.572 0-1.034.175-1.342.524-.308.349-.484.894-.484 1.593v1.527h4.31V7.66l.067-.021 2.727-.808.088-.022v3.58h2.88v2.334zM0 0h13.481v13.377H0V0zm14.889 0H28.37v13.377H14.89V0zM0 14.773h13.481V28.15H0V14.773zm14.889 0H28.37V28.15H14.89V14.773z"/>
</svg>
