<?xml version="1.0" encoding="UTF-8"?>
<svg width="586px" height="198px" viewBox="0 0 586 198" version="1.1" xmlns="http://www.w3.org/2000/svg" xmlns:xlink="http://www.w3.org/1999/xlink">
    <!-- Generator: Sketch 50.2 (55047) - http://www.bohemiancoding.com/sketch -->
    <title>Artboard</title>
    <desc>Created with Sketch.</desc>
    <defs></defs>
    <g id="Artboard" stroke="none" stroke-width="1" fill="none" fill-rule="evenodd">
        <path d="M87.8,61.2 L131.7,61.2 L131.7,71 L87.8,71 L87.8,61.2 Z M87.8,119.8 L131.7,119.8 L131.7,129.6 L87.8,129.6 L87.8,119.8 Z M73.2,100.3 L146.4,100.3 L146.4,110 L73.2,110 L73.2,100.3 Z M73.2,80.7 L146.4,80.7 L146.4,90.5 L73.2,90.5 L73.2,80.7 Z M29.3,93 L109.8,171.1 L190.2,92.9 L109.8,14.7 L29.3,93 Z M109.4,0.1 L197.6,85 L210.4,73.1 L219.6,81.4 L109.8,188.2 L20.5,101.5 L8.7,112.9 L0.1,104.5 L109.4,0.1 Z" id="Shape" fill="#FFFFFF" fill-rule="nonzero"></path>
        <path d="M522.5,154.5 L476.8,46.9 L492.7,46.9 L530,135.5 L569.9,46.9 L585.8,46.9 L517.8,197.1 L502.2,197.1 L522.5,154.5 Z M365.7,46.9 L380.7,46.9 L380.7,61.1 L381.1,61.1 C382.5,59.1 384.1,57.3 385.8,55.6 C388,53.4 390.6,51.5 393.3,50 C396.6,48.2 400.1,46.8 403.7,45.7 C408.1,44.5 412.6,43.9 417.1,44 C423.9,43.9 430.6,45 437,47 C443.4,49.2 449.3,52.9 454.1,57.7 C458.8,62.1 462.4,67.5 464.7,73.5 C467.4,79.9 468.7,87.8 468.7,97 L468.7,158.2 L453.7,158.2 L453.7,97 C453.7,89.7 452.7,83.5 450.6,78.5 C448.9,74 446.1,69.9 442.6,66.5 C438.8,62.9 434.2,60.3 429.2,58.9 C421.3,56.3 412.9,56.3 405,58.9 C395.3,61.6 387.4,68.8 383.8,78.2 C381.6,83.9 380.5,89.9 380.7,96 L380.7,158.2 L365.7,158.2 L365.7,46.9 Z M322.9,46.9 L337.9,46.9 L337.9,158.1 L322.9,158.1 L322.9,46.9 Z M322.9,7.7 L337.9,7.7 L337.9,33.3 L322.9,33.3 L322.9,7.7 Z M263.9,59.7 L239.2,59.7 L239.2,46.9 L263.9,46.9 L263.9,7.7 L278.9,7.7 L278.9,46.9 L307,46.9 L307,59.7 L278.9,59.7 L278.9,158.1 L263.9,158.1 L263.9,59.7 Z" id="Shape" fill="#FFFFFF" fill-rule="nonzero"></path>
    </g>
</svg>