<svg id="Layer_1" data-name="Layer 1" xmlns="http://www.w3.org/2000/svg" xmlns:xlink="http://www.w3.org/1999/xlink" viewBox="0 0 608 215">
<defs>
    <style>
    .cls-1,.cls-2,.cls-4{
        fill:#1975d1;
        }
    .cls-1,.cls-3{
        clip-rule:evenodd;
        }
    .cls-10,.cls-3,.cls-8{
        fill:#fff;
    }
    .cls-4,.cls-8{fill-rule:evenodd;}
    .cls-5{clip-path:url(#clip-path);}
    .cls-6{clip-path:url(#clip-path-2);}
    .cls-7{clip-path:url(#clip-path-3);}
    .cls-9{clip-path:url(#clip-path-5);}
    .cls-11{clip-path:url(#clip-path-6);}</style>
    <clipPath id="clip-path">
        <path class="cls-1" d="M99.8,70.19h43.9V80H99.8Zm0,58.62h43.9v9.77H99.8ZM85.17,109.27h73.16V119H85.17Zm0-19.54h73.16V99.5H85.17ZM41.27,102l80.51,78.15,80.45-78.16L121.78,23.79ZM121.42,9.13,209.55,94l12.77-11.91,9.18,8.31L121.75,197.2l-89.3-86.69L20.63,121.92,12,113.55Z"/>
    </clipPath>
    <clipPath id="clip-path-2">
        <rect class="cls-2" x="-3364.04" y="-756.25" width="5907.34" height="4516.16"/>
    </clipPath>
    <clipPath id="clip-path-3">
        <path class="cls-1" d="M534.46,163.46,488.8,55.92h15.87L542,144.55l39.86-88.63h15.86L529.74,206.15H514.09ZM377.72,55.92h15V70.15h.43a44.18,44.18,0,0,1,4.71-5.49,33.67,33.67,0,0,1,7.51-5.59,49.16,49.16,0,0,1,10.39-4.27,47.75,47.75,0,0,1,13.4-1.73,64,64,0,0,1,19.93,3,45.75,45.75,0,0,1,17.14,10.67,43.31,43.31,0,0,1,10.61,15.76q4,9.64,4,23.48v61.19h-15V105.93q0-11-3.11-18.5a32.87,32.87,0,0,0-8-12,32.25,32.25,0,0,0-13.4-7.62,38.93,38.93,0,0,0-24.21,0,32,32,0,0,0-21.22,19.31,46,46,0,0,0-3.11,17.79v62.21h-15Zm-42.87,0h15v111.2h-15Zm0-39.23h15V42.3h-15Zm-58.93,52H251.27V55.92h24.65V16.69h15V55.92H319V68.73H290.92v98.39h-15Z"/>
    </clipPath>
    <clipPath id="clip-path-5">
        <path class="cls-3" d="M807.8,70.19h43.9V80H807.8Zm0,58.62h43.9v9.77H807.8Zm-14.63-19.54h73.16V119H793.17Zm0-19.54h73.16V99.5H793.17ZM749.27,102l80.51,78.15,80.45-78.16L829.78,23.79ZM829.42,9.13,917.55,94l12.77-11.91,9.18,8.31L829.75,197.2l-89.3-86.69-11.82,11.41L720,113.55Z"/>
    </clipPath>
    <clipPath id="clip-path-6">
        <path class="cls-3" d="M1242.46,163.46,1196.8,55.92h15.87L1250,144.55l39.86-88.63h15.86l-67.94,150.23h-15.65ZM1085.72,55.92h15V70.15h.43a44.18,44.18,0,0,1,4.71-5.49,33.67,33.67,0,0,1,7.51-5.59,49.16,49.16,0,0,1,10.39-4.27,47.75,47.75,0,0,1,13.4-1.73,64,64,0,0,1,19.93,3,45.75,45.75,0,0,1,17.14,10.67,43.31,43.31,0,0,1,10.61,15.76q4,9.64,4,23.48v61.19h-15V105.93q0-11-3.11-18.5a32.87,32.87,0,0,0-8-12,32.25,32.25,0,0,0-13.4-7.62,38.93,38.93,0,0,0-24.21,0,32,32,0,0,0-21.22,19.31,46,46,0,0,0-3.11,17.79v62.21h-15Zm-42.87,0h15v111.2h-15Zm0-39.23h15V42.3h-15Zm-58.93,52H959.27V55.92h24.65V16.69h15V55.92H1027V68.73H998.92v98.39h-15Z"/>
    </clipPath>
</defs>
<path class="cls-4" d="M99.8,70.19h43.9V80H99.8Zm0,58.62h43.9v9.77H99.8ZM85.17,109.27h73.16V119H85.17Zm0-19.54h73.16V99.5H85.17ZM41.27,102l80.51,78.15,80.45-78.16L121.78,23.79ZM121.42,9.13,209.55,94l12.77-11.91,9.18,8.31L121.75,197.2l-89.3-86.69L20.63,121.92,12,113.55Z"/>
    <g class="cls-5">
        <rect class="cls-2" x="-3364.04" y="-756.25" width="5907.34" height="4516.16"/>
        <g class="cls-6">
            <rect class="cls-2" x="-2.77" y="-5.64" width="249.04" height="217.61"/>
        </g>
    </g>
<path class="cls-4" d="M534.46,163.46,488.8,55.92h15.87L542,144.55l39.86-88.63h15.86L529.74,206.15H514.09ZM377.72,55.92h15V70.15h.43a44.18,44.18,0,0,1,4.71-5.49,33.67,33.67,0,0,1,7.51-5.59,49.16,49.16,0,0,1,10.39-4.27,47.75,47.75,0,0,1,13.4-1.73,64,64,0,0,1,19.93,3,45.75,45.75,0,0,1,17.14,10.67,43.31,43.31,0,0,1,10.61,15.76q4,9.64,4,23.48v61.19h-15V105.93q0-11-3.11-18.5a32.87,32.87,0,0,0-8-12,32.25,32.25,0,0,0-13.4-7.62,38.93,38.93,0,0,0-24.21,0,32,32,0,0,0-21.22,19.31,46,46,0,0,0-3.11,17.79v62.21h-15Zm-42.87,0h15v111.2h-15Zm0-39.23h15V42.3h-15Zm-58.93,52H251.27V55.92h24.65V16.69h15V55.92H319V68.73H290.92v98.39h-15Z"/>
<g class="cls-7">
<rect class="cls-2" x="-3364.04" y="-756.25" width="5907.34" height="4516.16"/>
<g class="cls-6">
<rect class="cls-2" x="236.5" y="1.92" width="375.95" height="219"/>
</g>
</g>
<path class="cls-8" d="M807.8,70.19h43.9V80H807.8Zm0,58.62h43.9v9.77H807.8Zm-14.63-19.54h73.16V119H793.17Zm0-19.54h73.16V99.5H793.17ZM749.27,102l80.51,78.15,80.45-78.16L829.78,23.79ZM829.42,9.13,917.55,94l12.77-11.91,9.18,8.31L829.75,197.2l-89.3-86.69-11.82,11.41L720,113.55Z"/>
<g class="cls-9">
<rect class="cls-10" x="-2656.04" y="-756.25" width="5907.34" height="4516.16"/>
</g>
<path class="cls-8" d="M1242.46,163.46,1196.8,55.92h15.87L1250,144.55l39.86-88.63h15.86l-67.94,150.23h-15.65ZM1085.72,55.92h15V70.15h.43a44.18,44.18,0,0,1,4.71-5.49,33.67,33.67,0,0,1,7.51-5.59,49.16,49.16,0,0,1,10.39-4.27,47.75,47.75,0,0,1,13.4-1.73,64,64,0,0,1,19.93,3,45.75,45.75,0,0,1,17.14,10.67,43.31,43.31,0,0,1,10.61,15.76q4,9.64,4,23.48v61.19h-15V105.93q0-11-3.11-18.5a32.87,32.87,0,0,0-8-12,32.25,32.25,0,0,0-13.4-7.62,38.93,38.93,0,0,0-24.21,0,32,32,0,0,0-21.22,19.31,46,46,0,0,0-3.11,17.79v62.21h-15Zm-42.87,0h15v111.2h-15Zm0-39.23h15V42.3h-15Zm-58.93,52H959.27V55.92h24.65V16.69h15V55.92H1027V68.73H998.92v98.39h-15Z"/><g class="cls-11"><rect class="cls-10" x="-2656.04" y="-756.25" width="5907.34" height="4516.16"/></g></svg>